<?xml version="1.0" standalone="no"?>
<!DOCTYPE svg PUBLIC "-//W3C//DTD SVG 20010904//EN"
 "http://www.w3.org/TR/2001/REC-SVG-20010904/DTD/svg10.dtd">
<svg version="1.0" xmlns="http://www.w3.org/2000/svg"
 width="4614.000000pt" height="4614.000000pt" viewBox="0 0 4614.000000 4614.000000"
 preserveAspectRatio="xMidYMid meet">
<metadata>
Created by potrace 1.11, written by Peter Selinger 2001-2013
</metadata>
<g transform="translate(0.000000,4614.000000) scale(0.100000,-0.100000)"
fill="#000000" stroke="none">
<path d="M22458 46085 c-2 -2 -93 -6 -203 -10 -110 -4 -227 -8 -260 -10 -116
-5 -331 -16 -380 -20 -27 -2 -90 -6 -140 -10 -49 -3 -121 -8 -160 -11 -38 -2
-88 -7 -110 -9 -22 -2 -76 -7 -120 -10 -44 -3 -96 -8 -115 -10 -19 -2 -69 -7
-110 -10 -104 -9 -159 -14 -200 -20 -19 -2 -64 -7 -100 -10 -36 -3 -135 -15
-220 -25 -85 -11 -175 -21 -200 -24 -66 -8 -336 -45 -450 -62 -19 -2 -51 -7
-70 -10 -19 -3 -60 -9 -90 -14 -30 -5 -73 -12 -95 -15 -22 -3 -107 -17 -190
-31 -82 -14 -163 -27 -180 -30 -16 -2 -54 -9 -84 -15 -30 -6 -64 -12 -75 -14
-12 -1 -82 -14 -156 -28 -74 -15 -146 -28 -160 -31 -14 -2 -47 -9 -75 -15 -27
-6 -62 -13 -77 -16 -46 -8 -81 -16 -128 -26 -25 -6 -56 -13 -70 -15 -14 -3
-67 -14 -119 -25 -51 -12 -101 -22 -110 -24 -46 -10 -379 -88 -466 -110 -55
-14 -111 -28 -125 -31 -52 -11 -485 -126 -492 -131 -5 -2 -21 -6 -36 -9 -15
-2 -38 -9 -52 -14 -14 -4 -77 -23 -140 -40 -210 -58 -637 -189 -820 -252 -63
-22 -122 -41 -130 -43 -18 -4 -86 -27 -295 -100 -88 -31 -196 -69 -240 -85
-71 -25 -256 -92 -295 -107 -8 -4 -17 -7 -20 -8 -3 -1 -14 -5 -25 -10 -11 -5
-72 -28 -135 -52 -63 -24 -124 -47 -135 -52 -11 -5 -54 -22 -95 -39 -340 -137
-702 -290 -848 -358 -40 -19 -74 -34 -76 -34 -2 0 -56 -25 -121 -55 -64 -30
-118 -55 -119 -55 -14 0 -789 -381 -951 -468 -49 -27 -142 -76 -205 -109 -149
-79 -377 -204 -460 -252 -36 -21 -146 -85 -245 -142 -99 -57 -250 -146 -335
-197 -85 -52 -200 -122 -255 -156 -55 -33 -104 -64 -110 -68 -5 -5 -68 -45
-140 -90 -71 -45 -258 -168 -415 -273 -289 -194 -319 -215 -496 -340 -118 -82
-486 -352 -564 -412 -30 -23 -122 -94 -205 -158 -82 -63 -157 -121 -165 -128
-8 -6 -69 -55 -135 -107 -150 -119 -371 -300 -540 -444 -163 -139 -183 -156
-211 -181 -12 -11 -50 -45 -85 -75 -35 -30 -74 -66 -89 -79 -14 -12 -56 -51
-94 -85 -62 -54 -110 -98 -210 -189 -295 -271 -820 -786 -1057 -1037 -28 -30
-88 -94 -133 -141 -44 -47 -121 -130 -171 -184 -49 -54 -106 -115 -125 -136
-19 -20 -46 -50 -59 -66 -19 -22 -120 -135 -186 -209 -5 -6 -32 -37 -60 -69
-27 -32 -54 -63 -60 -69 -5 -6 -35 -40 -65 -76 -30 -36 -57 -67 -60 -70 -9 -8
-241 -289 -310 -375 -36 -44 -67 -82 -70 -85 -4 -3 -75 -93 -159 -200 -271
-344 -648 -854 -871 -1180 -111 -163 -440 -659 -465 -703 -12 -20 -148 -237
-181 -287 -33 -52 -287 -478 -315 -530 -13 -25 -27 -47 -30 -50 -3 -3 -22 -34
-41 -70 -20 -36 -76 -137 -126 -225 -190 -339 -596 -1128 -721 -1405 -19 -41
-63 -138 -99 -215 -95 -209 -162 -361 -242 -550 -39 -93 -75 -179 -80 -190
-12 -25 -33 -78 -76 -185 -19 -47 -39 -94 -43 -105 -5 -11 -33 -81 -61 -155
-28 -74 -55 -144 -60 -155 -9 -19 -88 -230 -94 -250 -2 -5 -8 -21 -13 -35 -6
-14 -54 -151 -108 -305 -53 -154 -100 -287 -103 -295 -3 -8 -6 -17 -7 -20 0
-3 -24 -75 -52 -160 -28 -85 -67 -209 -88 -275 -20 -66 -41 -133 -47 -150 -12
-38 -117 -394 -123 -418 -2 -10 -22 -82 -44 -160 -46 -167 -105 -384 -127
-472 -1 -5 -5 -21 -8 -35 -3 -14 -17 -72 -31 -130 -15 -58 -28 -112 -30 -120
-2 -8 -16 -64 -30 -125 -15 -60 -28 -119 -31 -130 -2 -11 -9 -45 -16 -75 -6
-30 -12 -57 -13 -60 0 -3 -6 -27 -13 -55 -14 -61 -109 -516 -117 -565 -3 -19
-8 -42 -10 -50 -2 -8 -6 -33 -9 -55 -4 -22 -8 -51 -11 -65 -10 -46 -15 -75
-20 -105 -3 -16 -10 -56 -16 -87 -5 -32 -12 -70 -15 -85 -2 -16 -7 -39 -9 -53
-3 -14 -7 -43 -11 -65 -6 -46 -12 -81 -18 -111 -2 -12 -7 -45 -11 -75 -4 -30
-8 -56 -10 -59 -2 -3 -6 -34 -10 -70 -4 -36 -8 -67 -10 -70 -3 -5 -10 -47 -20
-132 -3 -24 -8 -54 -10 -68 -2 -14 -7 -44 -10 -67 -10 -85 -16 -129 -25 -188
-5 -33 -12 -94 -16 -135 -3 -41 -8 -78 -10 -81 -2 -3 -6 -35 -9 -70 -3 -35 -8
-75 -10 -89 -2 -14 -6 -54 -10 -90 -4 -36 -8 -76 -10 -90 -2 -14 -7 -59 -10
-100 -3 -41 -8 -86 -10 -100 -4 -28 -11 -104 -30 -350 -3 -41 -7 -95 -10 -120
-2 -25 -7 -88 -10 -140 -3 -52 -8 -124 -10 -160 -31 -502 -39 -798 -39 -1450
0 -498 5 -809 19 -1070 1 -30 6 -118 10 -195 3 -77 8 -158 10 -180 2 -22 6
-83 9 -135 4 -52 9 -129 12 -170 5 -71 8 -104 18 -217 3 -27 7 -79 11 -118 16
-191 26 -293 30 -315 2 -8 6 -51 9 -95 4 -44 9 -87 11 -95 2 -8 7 -44 10 -80
4 -36 8 -76 10 -90 2 -14 6 -50 9 -80 6 -50 11 -94 21 -160 2 -14 7 -47 10
-75 3 -27 7 -61 10 -75 2 -14 7 -50 11 -80 3 -30 7 -57 9 -60 2 -3 6 -34 10
-70 4 -36 8 -67 10 -70 2 -3 6 -34 10 -70 3 -35 8 -67 10 -71 3 -3 7 -26 10
-50 3 -24 9 -66 15 -94 5 -27 11 -63 13 -80 3 -16 8 -46 11 -65 11 -65 16 -95
22 -130 3 -19 11 -66 19 -105 8 -38 17 -90 20 -115 4 -24 8 -47 11 -51 2 -3 6
-26 9 -50 3 -24 9 -59 15 -79 5 -19 11 -51 14 -70 10 -62 107 -520 146 -685
29 -124 29 -127 34 -151 2 -11 11 -49 20 -85 9 -35 18 -73 21 -84 8 -41 105
-414 135 -525 18 -63 33 -122 35 -130 12 -50 95 -334 195 -665 118 -390 343
-1043 483 -1400 28 -71 52 -134 53 -140 5 -24 220 -547 316 -770 29 -66 41
-94 87 -197 117 -265 213 -472 329 -708 47 -96 86 -177 86 -180 1 -3 23 -48
50 -100 27 -52 55 -108 63 -125 8 -16 19 -39 25 -50 6 -11 38 -71 71 -135 68
-132 137 -263 177 -335 15 -27 41 -75 58 -105 16 -30 44 -82 63 -115 18 -33
42 -77 54 -97 86 -157 434 -745 504 -853 14 -22 31 -49 38 -60 90 -154 508
-786 664 -1004 52 -73 101 -142 109 -154 68 -100 244 -340 401 -547 146 -193
231 -302 299 -386 14 -17 39 -48 55 -70 45 -57 310 -382 375 -459 19 -22 53
-63 75 -90 22 -26 49 -58 60 -69 11 -12 47 -53 79 -91 67 -80 160 -186 227
-260 78 -86 117 -129 139 -155 56 -65 329 -357 490 -523 227 -236 670 -672
846 -834 17 -15 76 -69 130 -119 54 -51 111 -102 125 -115 14 -13 43 -40 65
-60 189 -171 659 -574 834 -714 41 -33 82 -67 90 -75 9 -8 32 -27 51 -42 19
-14 102 -80 184 -145 83 -65 206 -161 275 -213 69 -52 127 -97 130 -100 6 -7
120 -91 250 -186 52 -38 96 -72 98 -76 2 -5 8 -8 13 -8 4 0 43 -26 86 -58 43
-32 89 -65 103 -75 14 -9 43 -29 65 -45 81 -58 143 -100 250 -173 61 -41 115
-78 120 -82 71 -58 854 -553 1150 -727 232 -136 378 -220 382 -220 3 0 17 -8
31 -19 15 -10 63 -37 107 -61 44 -24 118 -64 165 -90 90 -50 238 -129 405
-217 201 -106 741 -371 935 -460 30 -14 89 -41 130 -60 157 -74 504 -225 730
-318 129 -53 244 -100 255 -105 11 -5 56 -23 100 -40 44 -17 89 -35 100 -40
11 -5 56 -23 100 -39 44 -16 159 -60 255 -96 96 -37 200 -75 230 -85 30 -10
82 -28 115 -40 130 -48 702 -239 840 -280 33 -10 112 -34 175 -53 126 -39 418
-123 563 -163 175 -48 242 -66 257 -69 8 -2 42 -10 75 -19 33 -9 68 -19 78
-21 11 -2 94 -23 185 -45 183 -46 192 -48 225 -55 115 -25 217 -48 242 -55 17
-5 41 -11 55 -14 14 -2 102 -21 195 -41 94 -20 181 -38 195 -41 14 -2 68 -13
120 -24 52 -10 158 -30 235 -44 77 -14 163 -30 190 -36 28 -5 147 -26 265 -45
263 -44 255 -43 310 -50 25 -3 56 -8 70 -10 14 -2 45 -7 70 -10 25 -3 70 -10
100 -15 30 -5 79 -12 109 -15 30 -4 62 -8 71 -10 9 -2 41 -6 71 -9 30 -3 63
-8 74 -10 11 -2 54 -7 95 -11 41 -4 77 -8 80 -10 3 -2 41 -6 85 -10 44 -4 89
-9 100 -11 11 -2 49 -6 85 -10 36 -3 76 -7 90 -9 14 -2 54 -7 90 -10 36 -3 85
-7 110 -10 64 -7 134 -13 215 -20 39 -2 95 -7 125 -10 30 -2 87 -7 125 -10 39
-3 102 -7 140 -10 39 -3 106 -7 150 -10 262 -14 317 -17 385 -20 547 -27 1605
-27 2150 0 198 10 320 16 375 20 177 12 340 24 415 30 30 3 84 7 120 10 36 3
90 7 120 10 30 3 75 8 100 10 25 2 72 7 105 10 86 9 122 13 195 20 36 3 81 8
100 10 19 3 55 7 80 10 25 3 61 7 80 10 19 2 76 9 125 15 50 6 104 13 120 15
77 11 412 58 430 60 11 2 45 6 75 10 30 4 58 8 61 10 3 2 28 7 55 10 27 3 72
10 99 15 28 5 64 12 80 14 93 15 242 41 410 72 105 20 201 38 215 40 14 3 68
14 120 25 52 11 109 22 125 25 17 3 84 17 150 31 66 14 131 27 144 30 14 2 28
6 31 8 4 2 20 7 36 9 16 3 38 8 49 10 11 3 52 11 90 20 101 21 441 104 500
121 28 8 120 32 205 54 196 51 240 62 375 101 61 17 135 38 165 46 59 16 605
181 630 191 8 3 20 7 25 9 60 17 548 183 745 254 305 110 864 326 994 384 17
8 103 44 191 81 88 37 183 77 210 90 28 13 104 47 170 75 66 29 162 73 213 97
50 23 94 43 96 43 7 0 295 139 561 271 267 132 381 191 630 323 108 58 496
273 565 314 19 11 58 33 85 47 28 15 57 33 66 41 8 8 18 14 22 14 9 0 377 221
607 365 406 254 971 634 1285 865 216 158 590 440 730 551 192 150 634 512
684 559 9 8 41 35 71 60 30 25 57 47 60 51 3 3 61 54 130 114 69 59 150 131
181 159 30 28 86 78 123 111 38 33 82 74 100 90 18 17 97 91 176 165 347 325
773 750 1070 1069 69 74 147 157 173 185 27 28 67 73 90 100 23 27 47 54 52
60 6 6 37 40 69 76 32 36 73 81 91 100 29 32 284 329 382 445 54 64 199 240
240 291 125 156 225 283 345 439 76 99 144 187 151 195 59 72 450 617 597 830
121 177 394 589 410 621 7 13 16 26 19 29 14 11 404 647 478 780 17 30 60 105
95 165 35 61 84 146 108 190 24 44 53 98 66 120 195 351 429 803 584 1130 124
259 170 358 170 360 0 2 20 45 44 96 333 712 751 1806 1011 2644 114 366 289
981 310 1088 2 9 6 21 9 25 3 5 7 22 10 38 3 16 26 112 52 214 25 102 48 194
50 205 10 52 13 63 23 100 10 38 108 484 117 533 9 47 13 70 34 172 12 58 23
116 26 130 2 14 9 48 14 75 13 67 19 103 26 145 3 19 7 42 9 50 6 19 82 470
90 530 3 25 10 70 15 100 5 30 12 73 15 95 2 22 7 49 9 61 2 11 7 45 10 75 3
30 8 63 10 74 2 11 7 45 10 75 4 30 8 66 11 80 2 14 7 45 9 70 13 122 18 157
22 180 2 14 6 50 9 80 3 30 8 69 10 85 6 42 13 110 20 180 3 33 8 76 10 95 2
19 7 69 10 110 3 41 8 93 10 115 8 78 15 151 20 230 4 44 8 98 10 120 2 22 6
90 10 150 4 61 8 130 10 155 3 39 10 164 20 375 26 530 26 1673 0 2140 -2 39
-7 122 -10 185 -9 166 -19 325 -30 475 -4 54 -16 202 -20 245 -2 19 -6 67 -9
105 -4 39 -8 86 -11 105 -2 19 -7 71 -10 114 -4 43 -8 88 -11 99 -2 11 -6 50
-9 86 -3 36 -8 82 -10 101 -3 19 -7 58 -10 85 -5 42 -37 302 -50 400 -11 85
-16 124 -20 146 -2 13 -9 60 -15 104 -6 44 -13 91 -15 104 -2 13 -7 45 -10 70
-4 25 -10 69 -15 96 -13 67 -18 99 -26 154 -4 25 -8 55 -10 66 -2 11 -7 40
-10 65 -3 25 -8 48 -10 51 -1 3 -10 48 -18 100 -9 52 -18 105 -21 119 -3 14
-8 41 -11 60 -6 38 -30 160 -39 200 -3 14 -8 41 -11 60 -3 19 -12 63 -20 98
-7 34 -16 77 -19 95 -4 17 -17 82 -30 144 -14 61 -27 122 -29 135 -10 45 -47
213 -52 231 -2 9 -6 25 -8 35 -2 9 -16 67 -30 127 -15 61 -28 119 -31 130 -16
72 -119 469 -145 560 -17 61 -33 119 -35 129 -8 34 -96 338 -137 471 -22 72
-41 137 -43 145 -18 80 -325 991 -390 1155 -13 33 -62 164 -110 290 -48 127
-93 244 -100 260 -8 17 -26 62 -41 100 -28 73 -41 107 -67 165 -9 19 -25 60
-37 90 -12 30 -28 69 -35 85 -7 17 -41 95 -76 175 -34 80 -72 168 -84 195 -13
28 -44 97 -70 155 -209 469 -564 1178 -850 1695 -53 96 -93 167 -105 185 -6 8
-13 22 -17 30 -12 27 -269 462 -368 625 -104 169 -124 202 -190 305 -152 236
-202 313 -302 464 -62 92 -113 172 -113 176 0 5 -4 10 -8 12 -4 2 -33 39 -63
83 -291 423 -613 859 -943 1275 -125 158 -159 199 -181 224 -6 6 -26 31 -45
56 -19 25 -37 47 -40 50 -3 3 -28 32 -55 65 -62 74 -266 316 -280 331 -5 6
-35 40 -65 75 -47 54 -235 267 -335 378 -16 18 -50 54 -75 80 -25 26 -67 72
-94 102 -292 320 -1054 1078 -1289 1282 -12 10 -46 41 -77 70 -58 53 -188 170
-270 242 -25 22 -47 42 -50 45 -3 3 -36 32 -75 65 -38 33 -75 65 -82 71 -83
78 -616 516 -838 689 -42 33 -82 65 -88 70 -7 6 -93 71 -192 145 -99 74 -182
137 -185 140 -11 12 -415 303 -575 414 -180 125 -612 414 -755 505 -213 137
-608 379 -640 394 -8 4 -27 15 -42 25 -28 18 -337 199 -373 218 -11 6 -101 56
-200 111 -99 55 -227 125 -285 156 -58 31 -143 76 -190 101 -169 90 -971 486
-984 486 -2 0 -57 25 -122 56 -66 31 -145 67 -177 80 -32 14 -87 38 -122 54
-35 16 -162 71 -282 121 -120 50 -236 99 -258 109 -22 9 -123 50 -225 90 -102
40 -199 79 -217 86 -17 8 -34 14 -38 14 -4 0 -21 6 -38 14 -18 8 -95 38 -172
66 -77 28 -149 55 -160 59 -11 5 -36 15 -55 21 -19 6 -118 41 -220 76 -327
115 -617 210 -880 289 -85 26 -198 59 -250 75 -52 16 -147 43 -210 61 -63 17
-160 44 -215 60 -55 15 -129 35 -165 44 -36 9 -72 18 -80 20 -24 7 -253 66
-270 70 -65 14 -160 37 -185 45 -35 10 -501 114 -565 126 -14 3 -45 10 -70 16
-25 6 -54 12 -65 13 -11 2 -45 9 -75 15 -30 6 -64 13 -75 15 -27 5 -52 10
-180 35 -60 12 -123 24 -140 26 -16 3 -55 10 -85 16 -30 6 -62 12 -70 13 -8 1
-98 16 -200 33 -201 34 -308 51 -355 58 -16 3 -59 9 -95 14 -36 5 -85 12 -110
15 -25 3 -52 8 -60 10 -8 2 -40 7 -70 10 -30 3 -66 8 -80 10 -47 7 -105 15
-150 20 -25 3 -61 8 -80 10 -19 3 -60 7 -90 10 -30 4 -66 8 -80 10 -30 4 -105
13 -180 20 -30 3 -71 7 -90 10 -19 3 -67 7 -106 10 -39 3 -80 7 -90 9 -10 2
-57 7 -104 10 -47 4 -103 9 -125 11 -22 3 -76 7 -120 10 -44 3 -98 7 -120 10
-22 3 -87 7 -145 10 -58 3 -134 8 -170 10 -97 7 -230 14 -365 20 -66 3 -167 8
-225 11 -115 6 -1457 14 -1462 9z"/>
</g>
</svg>
